<svg width="96" height="96" xmlns="http://www.w3.org/2000/svg">

 <g>
  <title>background</title>
  <rect fill="none" id="canvas_background" height="402" width="582" y="-1" x="-1"/>
 </g>
 <g>
  <title>Layer 1</title>
  <path fill="#22a39f" id="svg_2" d="m50,58.424l0,-11.424c0,-1.104 -0.896,-2 -2,-2c-1.105,0 -2,0.896 -2,2l0,11.424c-1.763,0.772999 -3,2.531002 -3,4.576c0,2.757004 2.243,5 5,5c2.757,0 5,-2.242996 5,-5c0,-2.044998 -1.237,-3.803001 -3,-4.576zm-2,5.576c-0.551998,0 -1,-0.448002 -1,-1s0.448002,-1 1,-1c0.551998,0 1,0.448002 1,1s-0.448002,1 -1,1z"/>
  <path fill="#22a39f" id="svg_3" d="m56.008999,55.459l-0.008999,-25.459c0,-4.410999 -3.589001,-8 -8,-8c-4.410999,0 -8,3.589001 -8,7.999001l-0.009998,25.459999c-1.91,2.033001 -2.990002,4.733002 -2.990002,7.541c0,6.065002 4.935001,11 11,11c6.064999,0 11,-4.934998 11,-11c0,-2.808998 -1.080002,-5.508999 -2.991001,-7.541zm-8.008999,14.541c-3.859001,0 -7,-3.140999 -7,-7c0,-1.984001 0.848,-3.884998 2.327,-5.213001c0.422001,-0.379997 0.663002,-0.919998 0.663002,-1.487l0.009998,-26.299999c0,-2.205999 1.793999,-4 4,-4c2.206001,0 4,1.794001 4,4.000999l0.008999,26.299c0,0.567001 0.241001,1.108002 0.664001,1.487c1.478001,1.328003 2.327,3.228001 2.327,5.213001c0,3.859001 -3.140999,7 -7,7z"/>
 </g>
</svg>