<svg width="23.999999999999996" height="23.999999999999996" xmlns="http://www.w3.org/2000/svg">

 <g>
  <title>background</title>
  <rect fill="none" id="canvas_background" height="402" width="582" y="-1" x="-1"/>
 </g>
 <g>
  <title>Layer 1</title>
  <path fill="#22a39f" id="svg_2" d="m12.000237,5.967952c-3.488723,2.495983 -5.233084,4.326369 -5.233084,7.071949s2.354888,4.991964 5.233084,4.991964s5.233085,-2.246384 5.233085,-4.991964s-2.616543,-4.575967 -5.233085,-7.071949zm0,10.399926c-1.918797,0 -3.488723,-1.497589 -3.488723,-3.327976s0.872181,-2.495982 3.488723,-4.991964c2.616542,2.495982 3.488723,3.161577 3.488723,4.991964s-1.569925,3.327976 -3.488723,3.327976z"/>
  <path fill="#22a39f" id="svg_3" d="m11.864654,15.947376c1.7,0 3,-1.3 3,-3.000001l-1,0c0,1.1 -0.9,2 -2,2l0,1.000001z"/>
 </g>
</svg>