<svg width="96" height="96" xmlns="http://www.w3.org/2000/svg">

 <g>
  <title>background</title>
  <rect fill="none" id="canvas_background" height="402" width="582" y="-1" x="-1"/>
 </g>
 <g>
  <title>Layer 1</title>
  <path fill="#22a39f" id="svg_2" d="m54,46l-30.000999,-0.000999c-1.104,0 -2,0.896 -2,2s0.896,2 2,2l30.000999,0.000999c3.859001,0 7,3.140999 7,7s-3.140999,7 -7,7c-1.105,0 -2,0.896004 -2,2s0.895,2 2,2c6.064999,0 11,-4.935001 11,-11s-4.935001,-11 -11,-11z"/>
  <path fill="#22a39f" id="svg_3" d="m47.999001,52l-23.999001,0c-1.104,0 -2,0.896 -2,2s0.896,2 2,2l23.999001,0c0.551998,0 1,0.448002 1,1s-0.448002,1 -1,1c-1.105,0 -2,0.896 -2,2s0.895,2 2,2c2.757,0 5,-2.243 5,-5s-2.243,-5 -5,-5z"/>
  <path fill="#22a39f" id="svg_4" d="m69,38c-1.103996,0 -2,0.896 -2,2s0.896004,2 2,2c0.552002,0 1,0.448002 1,1s-0.447998,1 -1,1l-4,0c-1.105,0 -2,0.896 -2,2s0.895,2 2,2l4,0c2.757004,0 5,-2.243 5,-5s-2.242996,-5 -5,-5z"/>
  <path fill="#22a39f" id="svg_5" d="m23.999001,43.999001l33.000999,0.000999c4.410999,0 8,-3.589001 8,-8s-3.589001,-8 -8,-8s-8,3.589001 -8,8c0,1.104 0.895,2 2,2c1.104,0 2,-0.896 2,-2c0,-2.206001 1.793999,-4 4,-4c2.206001,0 4,1.793999 4,4s-1.793999,4 -4,4l-33.000999,-0.000999c-1.104,0 -2,0.896 -2,2s0.896,2 2,2z"/>
 </g>
</svg>